# xmcd
#
# Track frame offsets:
#	150
#	14812
#	31723
#	47665
#	62889
#	79484
#	95181
#	113677
#	128624
#	143036
#	161668
#
# Disc length: 2365 seconds
#
# Revision: 1
# Processed by: cddbd v1.5.2PL0 Copyright (c) Steve Scherf et al.
# Submitted via: FairStars CD Ripper 1.01
#
DISCID=94093b0b
DTITLE=Gianmarco - 8
DYEAR=2006
DGENRE=R&B
TTITLE0=el amor es un juego
TTITLE1=dibújame el camino
TTITLE2=cuando tú no estas
TTITLE3=quiero saber
TTITLE4=sin permiso
TTITLE5=qué pasa?
TTITLE6=no te avisa
TTITLE7=loco
TTITLE8=nunca más te vi
TTITLE9=vientos del sur
TTITLE10=vientos del sur
EXTD=
EXTT0=
EXTT1=
EXTT2=
EXTT3=
EXTT4=
EXTT5=
EXTT6=
EXTT7=
EXTT8=
EXTT9=
EXTT10=
PLAYORDER=
